<?xml version="1.0" standalone="no"?>
<!DOCTYPE svg PUBLIC "-//W3C//DTD SVG 20010904//EN"
 "http://www.w3.org/TR/2001/REC-SVG-20010904/DTD/svg10.dtd">
<svg version="1.0" xmlns="http://www.w3.org/2000/svg"
 width="512.000000pt" height="512.000000pt" viewBox="0 0 512.000000 512.000000"
 preserveAspectRatio="xMidYMid meet">
<metadata>
Created by potrace 1.11, written by Peter Selinger 2001-2013
</metadata>
<g transform="translate(0.000000,512.000000) scale(0.100000,-0.100000)"
fill="#000000" stroke="none">
<path d="M2467 4204 c-1 -1 -38 -4 -82 -8 -44 -4 -89 -9 -100 -11 -11 -3 -31
-7 -45 -9 -66 -11 -163 -38 -245 -67 -49 -18 -92 -31 -94 -30 -2 1 -7 -1 -10
-6 -3 -5 -41 -25 -84 -46 l-77 -37 -38 21 c-48 27 -81 34 -168 32 -49 -1 -83
-7 -110 -21 -32 -16 -256 -189 -274 -211 -3 -3 -21 -18 -40 -32 -19 -15 -45
-35 -57 -45 -30 -27 -49 -42 -128 -106 -134 -108 -270 -219 -290 -236 -11 -10
-56 -47 -100 -82 -150 -120 -178 -164 -181 -285 -3 -156 54 -220 345 -388
l193 -112 4 -140 c2 -77 6 -151 9 -165 3 -14 8 -44 11 -68 8 -65 61 -246 100
-341 147 -357 430 -654 786 -825 95 -45 294 -116 326 -116 10 0 22 -3 26 -7 3
-4 16 -8 28 -10 12 -2 47 -10 77 -17 31 -8 74 -17 96 -20 22 -3 63 -9 90 -13
63 -9 333 -8 400 1 178 26 341 77 512 162 l133 66 42 -20 c85 -39 151 -45 221
-20 70 24 23 -19 590 546 266 264 396 401 412 432 43 85 26 212 -38 287 -26
30 -114 91 -194 135 -32 17 -63 35 -69 39 -6 5 -37 23 -70 40 -98 53 -99 54
-101 139 -4 157 -32 310 -88 476 -34 102 -123 293 -151 325 -8 8 -14 19 -14
23 0 4 -4 12 -10 19 -5 7 -35 46 -66 87 -103 136 -257 279 -407 374 -77 49
-228 126 -247 126 -9 0 -20 4 -26 9 -16 15 -162 59 -339 103 -141 35 -218 45
-383 51 -40 2 -73 2 -75 1z"/>
</g>
</svg>
